<svg width="62" height="60" viewBox="0 0 62 60" fill="none" xmlns="http://www.w3.org/2000/svg">
<path d="M15.477 60C13.5938 60 12.0671 58.4734 12.0671 56.5902L12.0671 45.7831C12.0671 43.0598 9.85947 40.8522 7.13621 40.8522C6.74979 40.8522 6.43654 40.5389 6.43655 40.1525L6.43656 39.9587C6.43658 39.4652 6.83661 39.0652 7.33006 39.0652L26.658 39.0652L26.658 60L15.477 60Z" fill="#725848"/>
<path fill-rule="evenodd" clip-rule="evenodd" d="M61.7871 54.6846C61.7871 57.6188 59.4083 59.9976 56.4741 59.9976L15.8282 59.9976C17.7108 59.9976 19.2369 58.4714 19.2369 56.5888L19.2369 53.0779L19.2369 28.6126C19.2369 28.4437 19.2448 28.2767 19.2602 28.1118C19.2448 27.954 19.2369 27.7939 19.2369 27.632L19.2369 24.1213C19.2369 21.4273 21.4209 19.2433 24.1149 19.2433C26.5289 19.2433 28.5333 20.9968 28.924 23.2996L52.1001 23.2996C52.4907 20.9968 54.4951 19.2433 56.9091 19.2433C59.6032 19.2433 61.7871 21.4272 61.7871 24.1213L61.7871 27.6319C61.7871 27.7939 61.7792 27.954 61.7638 28.112C61.7792 28.2768 61.7871 28.4437 61.7871 28.6126L61.7871 54.6846Z" fill="white"/>
<rect x="51.7158" y="46.3635" width="4.52002" height="9.11933" rx="2.26001" transform="rotate(-180 51.7158 46.3635)" fill="black"/>
<rect x="36.9663" y="46.3635" width="4.59931" height="9.11933" rx="2.29966" transform="rotate(-180 36.9663 46.3635)" fill="black"/>
<path d="M7.42847 15.5914C5.70982 15.2224 5.70982 12.7701 7.42847 12.4011C9.91986 11.8661 11.866 9.91992 12.401 7.42853C12.7701 5.70987 15.2223 5.70987 15.5914 7.42852C16.1264 9.91992 18.0725 11.8661 20.5639 12.4011C22.2826 12.7701 22.2826 15.2224 20.5639 15.5914C18.0725 16.1264 16.1264 18.0726 15.5914 20.564C15.2223 22.2826 12.7701 22.2826 12.401 20.564C11.866 18.0726 9.91986 16.1264 7.42847 15.5914Z" fill="white"/>
</svg>
